<mxfile host="app.diagrams.net" agent="Mozilla/5.0 (X11; Linux x86_64; rv:130.0) Gecko/20100101 Firefox/130.0" version="24.7.15">
  <diagram id="C5RBs43oDa-KdzZeNtuy" name="Page-1">
    <mxGraphModel dx="1652" dy="931" grid="1" gridSize="10" guides="1" tooltips="1" connect="1" arrows="1" fold="1" page="1" pageScale="1" pageWidth="827" pageHeight="1169" math="0" shadow="0">
      <root>
        <mxCell id="WIyWlLk6GJQsqaUBKTNV-0" />
        <mxCell id="WIyWlLk6GJQsqaUBKTNV-1" parent="WIyWlLk6GJQsqaUBKTNV-0" />
        <mxCell id="xIgMKLJPhGoxKJrtwZhn-37" value="" style="rounded=0;whiteSpace=wrap;html=1;movable=0;resizable=0;rotatable=0;deletable=0;editable=0;locked=1;connectable=0;" vertex="1" parent="WIyWlLk6GJQsqaUBKTNV-1">
          <mxGeometry x="20" width="750" height="1010" as="geometry" />
        </mxCell>
        <mxCell id="5ssrC0JKO4gaHqFerZnz-1" style="edgeStyle=orthogonalEdgeStyle;rounded=0;orthogonalLoop=1;jettySize=auto;html=1;exitX=0.5;exitY=1;exitDx=0;exitDy=0;" parent="WIyWlLk6GJQsqaUBKTNV-1" source="WIyWlLk6GJQsqaUBKTNV-3" target="5ssrC0JKO4gaHqFerZnz-0" edge="1">
          <mxGeometry relative="1" as="geometry" />
        </mxCell>
        <mxCell id="WIyWlLk6GJQsqaUBKTNV-3" value="Access Website" style="rounded=1;whiteSpace=wrap;html=1;fontSize=12;glass=0;strokeWidth=1;shadow=0;arcSize=0;" parent="WIyWlLk6GJQsqaUBKTNV-1" vertex="1">
          <mxGeometry x="330" y="90" width="120" height="40" as="geometry" />
        </mxCell>
        <mxCell id="ROz2tC8UCH84FMvyF4rq-2" style="edgeStyle=orthogonalEdgeStyle;rounded=0;orthogonalLoop=1;jettySize=auto;html=1;exitX=0.5;exitY=1;exitDx=0;exitDy=0;entryX=0.5;entryY=0;entryDx=0;entryDy=0;" parent="WIyWlLk6GJQsqaUBKTNV-1" source="xIgMKLJPhGoxKJrtwZhn-0" target="WIyWlLk6GJQsqaUBKTNV-3" edge="1">
          <mxGeometry relative="1" as="geometry">
            <mxPoint x="390" y="60" as="sourcePoint" />
          </mxGeometry>
        </mxCell>
        <mxCell id="5ssrC0JKO4gaHqFerZnz-3" style="edgeStyle=orthogonalEdgeStyle;rounded=0;orthogonalLoop=1;jettySize=auto;html=1;exitX=0.5;exitY=1;exitDx=0;exitDy=0;entryX=0.5;entryY=0;entryDx=0;entryDy=0;" parent="WIyWlLk6GJQsqaUBKTNV-1" source="5ssrC0JKO4gaHqFerZnz-0" target="5ssrC0JKO4gaHqFerZnz-2" edge="1">
          <mxGeometry relative="1" as="geometry" />
        </mxCell>
        <mxCell id="5ssrC0JKO4gaHqFerZnz-0" value="Log In" style="rounded=1;whiteSpace=wrap;html=1;fontSize=12;glass=0;strokeWidth=1;shadow=0;arcSize=0;" parent="WIyWlLk6GJQsqaUBKTNV-1" vertex="1">
          <mxGeometry x="330" y="170" width="120" height="40" as="geometry" />
        </mxCell>
        <mxCell id="5ssrC0JKO4gaHqFerZnz-4" style="edgeStyle=orthogonalEdgeStyle;rounded=0;orthogonalLoop=1;jettySize=auto;html=1;exitX=0;exitY=0.5;exitDx=0;exitDy=0;entryX=0;entryY=0.5;entryDx=0;entryDy=0;" parent="WIyWlLk6GJQsqaUBKTNV-1" source="5ssrC0JKO4gaHqFerZnz-2" target="5ssrC0JKO4gaHqFerZnz-0" edge="1">
          <mxGeometry relative="1" as="geometry" />
        </mxCell>
        <mxCell id="5ssrC0JKO4gaHqFerZnz-5" value="No" style="edgeLabel;html=1;align=center;verticalAlign=middle;resizable=0;points=[];" parent="5ssrC0JKO4gaHqFerZnz-4" vertex="1" connectable="0">
          <mxGeometry x="-0.0875" y="1" relative="1" as="geometry">
            <mxPoint x="-9" y="3" as="offset" />
          </mxGeometry>
        </mxCell>
        <mxCell id="5ssrC0JKO4gaHqFerZnz-7" style="edgeStyle=orthogonalEdgeStyle;rounded=0;orthogonalLoop=1;jettySize=auto;html=1;exitX=0.5;exitY=1;exitDx=0;exitDy=0;entryX=0.5;entryY=0;entryDx=0;entryDy=0;" parent="WIyWlLk6GJQsqaUBKTNV-1" source="5ssrC0JKO4gaHqFerZnz-2" target="5ssrC0JKO4gaHqFerZnz-6" edge="1">
          <mxGeometry relative="1" as="geometry" />
        </mxCell>
        <mxCell id="5ssrC0JKO4gaHqFerZnz-12" value="Yes" style="edgeLabel;html=1;align=center;verticalAlign=middle;resizable=0;points=[];" parent="5ssrC0JKO4gaHqFerZnz-7" vertex="1" connectable="0">
          <mxGeometry x="-0.1444" y="-2" relative="1" as="geometry">
            <mxPoint x="-8" as="offset" />
          </mxGeometry>
        </mxCell>
        <mxCell id="5ssrC0JKO4gaHqFerZnz-2" value="isValid?" style="rhombus;whiteSpace=wrap;html=1;shadow=0;fontFamily=Helvetica;fontSize=12;align=center;strokeWidth=1;spacing=6;spacingTop=-4;" parent="WIyWlLk6GJQsqaUBKTNV-1" vertex="1">
          <mxGeometry x="340" y="250" width="100" height="80" as="geometry" />
        </mxCell>
        <mxCell id="5ssrC0JKO4gaHqFerZnz-6" value="Access Admin Panel" style="rounded=1;whiteSpace=wrap;html=1;fontSize=12;glass=0;strokeWidth=1;shadow=0;arcSize=0;" parent="WIyWlLk6GJQsqaUBKTNV-1" vertex="1">
          <mxGeometry x="330" y="360" width="120" height="40" as="geometry" />
        </mxCell>
        <mxCell id="5ssrC0JKO4gaHqFerZnz-13" value="Check Doucments Validation" style="rounded=1;whiteSpace=wrap;html=1;fontSize=12;glass=0;strokeWidth=1;shadow=0;arcSize=0;" parent="WIyWlLk6GJQsqaUBKTNV-1" vertex="1">
          <mxGeometry x="250.4" y="545" width="120" height="40" as="geometry" />
        </mxCell>
        <mxCell id="5ssrC0JKO4gaHqFerZnz-23" value="" style="strokeWidth=2;html=1;shape=mxgraph.flowchart.database;whiteSpace=wrap;" parent="WIyWlLk6GJQsqaUBKTNV-1" vertex="1">
          <mxGeometry x="590.4" y="600" width="60" height="60" as="geometry" />
        </mxCell>
        <mxCell id="xIgMKLJPhGoxKJrtwZhn-0" value="" style="ellipse;fillColor=strokeColor;html=1;" vertex="1" parent="WIyWlLk6GJQsqaUBKTNV-1">
          <mxGeometry x="375" y="30" width="30" height="30" as="geometry" />
        </mxCell>
        <mxCell id="xIgMKLJPhGoxKJrtwZhn-5" value="" style="html=1;points=[];perimeter=orthogonalPerimeter;fillColor=strokeColor;rotation=90;" vertex="1" parent="WIyWlLk6GJQsqaUBKTNV-1">
          <mxGeometry x="382.9" y="125.08" width="5" height="639.84" as="geometry" />
        </mxCell>
        <mxCell id="xIgMKLJPhGoxKJrtwZhn-9" style="edgeStyle=orthogonalEdgeStyle;rounded=0;orthogonalLoop=1;jettySize=auto;html=1;exitX=0.5;exitY=1;exitDx=0;exitDy=0;" edge="1" parent="WIyWlLk6GJQsqaUBKTNV-1" source="5ssrC0JKO4gaHqFerZnz-6">
          <mxGeometry relative="1" as="geometry">
            <mxPoint x="390" y="440" as="targetPoint" />
          </mxGeometry>
        </mxCell>
        <mxCell id="xIgMKLJPhGoxKJrtwZhn-11" value="Enroll New Students" style="rounded=1;whiteSpace=wrap;html=1;fontSize=12;glass=0;strokeWidth=1;shadow=0;arcSize=0;" vertex="1" parent="WIyWlLk6GJQsqaUBKTNV-1">
          <mxGeometry x="405.4" y="600" width="120" height="40" as="geometry" />
        </mxCell>
        <mxCell id="xIgMKLJPhGoxKJrtwZhn-12" value="Upload News And Announcemnet" style="rounded=1;whiteSpace=wrap;html=1;fontSize=12;glass=0;strokeWidth=1;shadow=0;arcSize=0;" vertex="1" parent="WIyWlLk6GJQsqaUBKTNV-1">
          <mxGeometry x="90.4" y="600" width="120" height="40" as="geometry" />
        </mxCell>
        <mxCell id="xIgMKLJPhGoxKJrtwZhn-14" value="CRUD Operations" style="rounded=1;whiteSpace=wrap;html=1;fontSize=12;glass=0;strokeWidth=1;shadow=0;arcSize=0;" vertex="1" parent="WIyWlLk6GJQsqaUBKTNV-1">
          <mxGeometry x="560.4" y="510" width="120" height="40" as="geometry" />
        </mxCell>
        <mxCell id="xIgMKLJPhGoxKJrtwZhn-15" value="" style="html=1;points=[];perimeter=orthogonalPerimeter;fillColor=strokeColor;rotation=90;" vertex="1" parent="WIyWlLk6GJQsqaUBKTNV-1">
          <mxGeometry x="387.5" y="480" width="5" height="639.84" as="geometry" />
        </mxCell>
        <mxCell id="xIgMKLJPhGoxKJrtwZhn-18" value="Notify Student" style="rounded=1;whiteSpace=wrap;html=1;fontSize=12;glass=0;strokeWidth=1;shadow=0;arcSize=0;" vertex="1" parent="WIyWlLk6GJQsqaUBKTNV-1">
          <mxGeometry x="250.39999999999998" y="670" width="120" height="40" as="geometry" />
        </mxCell>
        <mxCell id="xIgMKLJPhGoxKJrtwZhn-21" style="edgeStyle=orthogonalEdgeStyle;rounded=0;orthogonalLoop=1;jettySize=auto;html=1;exitX=0.594;exitY=0.866;exitDx=0;exitDy=0;entryX=0.5;entryY=0;entryDx=0;entryDy=0;exitPerimeter=0;" edge="1" parent="WIyWlLk6GJQsqaUBKTNV-1" source="xIgMKLJPhGoxKJrtwZhn-5" target="xIgMKLJPhGoxKJrtwZhn-12">
          <mxGeometry relative="1" as="geometry">
            <mxPoint x="140" y="600" as="sourcePoint" />
            <mxPoint x="140" y="640" as="targetPoint" />
          </mxGeometry>
        </mxCell>
        <mxCell id="xIgMKLJPhGoxKJrtwZhn-22" style="edgeStyle=orthogonalEdgeStyle;rounded=0;orthogonalLoop=1;jettySize=auto;html=1;exitX=1.5;exitY=0.617;exitDx=0;exitDy=0;entryX=0.5;entryY=0;entryDx=0;entryDy=0;exitPerimeter=0;" edge="1" parent="WIyWlLk6GJQsqaUBKTNV-1" source="xIgMKLJPhGoxKJrtwZhn-5" target="5ssrC0JKO4gaHqFerZnz-13">
          <mxGeometry relative="1" as="geometry">
            <mxPoint x="161" y="455" as="sourcePoint" />
            <mxPoint x="160" y="520" as="targetPoint" />
          </mxGeometry>
        </mxCell>
        <mxCell id="xIgMKLJPhGoxKJrtwZhn-23" style="edgeStyle=orthogonalEdgeStyle;rounded=0;orthogonalLoop=1;jettySize=auto;html=1;exitX=0.829;exitY=0.375;exitDx=0;exitDy=0;exitPerimeter=0;" edge="1" parent="WIyWlLk6GJQsqaUBKTNV-1" source="xIgMKLJPhGoxKJrtwZhn-5" target="xIgMKLJPhGoxKJrtwZhn-11">
          <mxGeometry relative="1" as="geometry">
            <mxPoint x="171" y="465" as="sourcePoint" />
            <mxPoint x="170" y="530" as="targetPoint" />
          </mxGeometry>
        </mxCell>
        <mxCell id="xIgMKLJPhGoxKJrtwZhn-24" style="edgeStyle=orthogonalEdgeStyle;rounded=0;orthogonalLoop=1;jettySize=auto;html=1;exitX=0.829;exitY=0.134;exitDx=0;exitDy=0;entryX=0.5;entryY=0;entryDx=0;entryDy=0;exitPerimeter=0;" edge="1" parent="WIyWlLk6GJQsqaUBKTNV-1" source="xIgMKLJPhGoxKJrtwZhn-5" target="xIgMKLJPhGoxKJrtwZhn-14">
          <mxGeometry relative="1" as="geometry">
            <mxPoint x="181" y="475" as="sourcePoint" />
            <mxPoint x="180" y="540" as="targetPoint" />
          </mxGeometry>
        </mxCell>
        <mxCell id="xIgMKLJPhGoxKJrtwZhn-25" style="edgeStyle=orthogonalEdgeStyle;rounded=0;orthogonalLoop=1;jettySize=auto;html=1;exitX=0.5;exitY=1;exitDx=0;exitDy=0;entryX=0.5;entryY=0;entryDx=0;entryDy=0;" edge="1" parent="WIyWlLk6GJQsqaUBKTNV-1" source="5ssrC0JKO4gaHqFerZnz-13" target="xIgMKLJPhGoxKJrtwZhn-18">
          <mxGeometry relative="1" as="geometry">
            <mxPoint x="191" y="485" as="sourcePoint" />
            <mxPoint x="190" y="550" as="targetPoint" />
          </mxGeometry>
        </mxCell>
        <mxCell id="xIgMKLJPhGoxKJrtwZhn-26" style="edgeStyle=orthogonalEdgeStyle;rounded=0;orthogonalLoop=1;jettySize=auto;html=1;exitX=0.5;exitY=1;exitDx=0;exitDy=0;" edge="1" parent="WIyWlLk6GJQsqaUBKTNV-1" source="xIgMKLJPhGoxKJrtwZhn-12">
          <mxGeometry relative="1" as="geometry">
            <mxPoint x="201" y="495" as="sourcePoint" />
            <mxPoint x="150" y="798" as="targetPoint" />
          </mxGeometry>
        </mxCell>
        <mxCell id="xIgMKLJPhGoxKJrtwZhn-27" style="edgeStyle=orthogonalEdgeStyle;rounded=0;orthogonalLoop=1;jettySize=auto;html=1;exitX=0.5;exitY=1;exitDx=0;exitDy=0;entryX=-0.272;entryY=0.623;entryDx=0;entryDy=0;entryPerimeter=0;" edge="1" parent="WIyWlLk6GJQsqaUBKTNV-1" source="xIgMKLJPhGoxKJrtwZhn-18" target="xIgMKLJPhGoxKJrtwZhn-15">
          <mxGeometry relative="1" as="geometry">
            <mxPoint x="211" y="505" as="sourcePoint" />
            <mxPoint x="230" y="620" as="targetPoint" />
          </mxGeometry>
        </mxCell>
        <mxCell id="xIgMKLJPhGoxKJrtwZhn-28" style="edgeStyle=orthogonalEdgeStyle;rounded=0;orthogonalLoop=1;jettySize=auto;html=1;exitX=0.5;exitY=1;exitDx=0;exitDy=0;entryX=0.036;entryY=0.382;entryDx=0;entryDy=0;entryPerimeter=0;" edge="1" parent="WIyWlLk6GJQsqaUBKTNV-1" source="xIgMKLJPhGoxKJrtwZhn-11" target="xIgMKLJPhGoxKJrtwZhn-15">
          <mxGeometry relative="1" as="geometry">
            <mxPoint x="221" y="515" as="sourcePoint" />
            <mxPoint x="220" y="580" as="targetPoint" />
          </mxGeometry>
        </mxCell>
        <mxCell id="xIgMKLJPhGoxKJrtwZhn-29" style="edgeStyle=orthogonalEdgeStyle;rounded=0;orthogonalLoop=1;jettySize=auto;html=1;exitX=0.5;exitY=1;exitDx=0;exitDy=0;entryX=0.5;entryY=0;entryDx=0;entryDy=0;entryPerimeter=0;" edge="1" parent="WIyWlLk6GJQsqaUBKTNV-1" source="xIgMKLJPhGoxKJrtwZhn-14" target="5ssrC0JKO4gaHqFerZnz-23">
          <mxGeometry relative="1" as="geometry">
            <mxPoint x="231" y="525" as="sourcePoint" />
            <mxPoint x="230" y="590" as="targetPoint" />
          </mxGeometry>
        </mxCell>
        <mxCell id="xIgMKLJPhGoxKJrtwZhn-30" value="Show Data" style="rounded=1;whiteSpace=wrap;html=1;fontSize=12;glass=0;strokeWidth=1;shadow=0;arcSize=0;" vertex="1" parent="WIyWlLk6GJQsqaUBKTNV-1">
          <mxGeometry x="560.4" y="710" width="120" height="40" as="geometry" />
        </mxCell>
        <mxCell id="xIgMKLJPhGoxKJrtwZhn-31" style="edgeStyle=orthogonalEdgeStyle;rounded=0;orthogonalLoop=1;jettySize=auto;html=1;exitX=0.5;exitY=1;exitDx=0;exitDy=0;entryX=0.5;entryY=0;entryDx=0;entryDy=0;exitPerimeter=0;" edge="1" parent="WIyWlLk6GJQsqaUBKTNV-1" source="5ssrC0JKO4gaHqFerZnz-23" target="xIgMKLJPhGoxKJrtwZhn-30">
          <mxGeometry relative="1" as="geometry">
            <mxPoint x="475" y="560" as="sourcePoint" />
            <mxPoint x="475" y="807" as="targetPoint" />
          </mxGeometry>
        </mxCell>
        <mxCell id="xIgMKLJPhGoxKJrtwZhn-32" style="edgeStyle=orthogonalEdgeStyle;rounded=0;orthogonalLoop=1;jettySize=auto;html=1;exitX=0.5;exitY=1;exitDx=0;exitDy=0;entryX=0.516;entryY=0.141;entryDx=0;entryDy=0;entryPerimeter=0;" edge="1" parent="WIyWlLk6GJQsqaUBKTNV-1" source="xIgMKLJPhGoxKJrtwZhn-30" target="xIgMKLJPhGoxKJrtwZhn-15">
          <mxGeometry relative="1" as="geometry">
            <mxPoint x="630" y="670" as="sourcePoint" />
            <mxPoint x="630" y="720" as="targetPoint" />
          </mxGeometry>
        </mxCell>
        <mxCell id="xIgMKLJPhGoxKJrtwZhn-33" value="Log out" style="rounded=1;whiteSpace=wrap;html=1;fontSize=12;glass=0;strokeWidth=1;shadow=0;arcSize=0;" vertex="1" parent="WIyWlLk6GJQsqaUBKTNV-1">
          <mxGeometry x="330" y="860" width="120" height="40" as="geometry" />
        </mxCell>
        <mxCell id="xIgMKLJPhGoxKJrtwZhn-34" style="edgeStyle=orthogonalEdgeStyle;rounded=0;orthogonalLoop=1;jettySize=auto;html=1;entryX=0.5;entryY=0;entryDx=0;entryDy=0;" edge="1" parent="WIyWlLk6GJQsqaUBKTNV-1" target="xIgMKLJPhGoxKJrtwZhn-33">
          <mxGeometry relative="1" as="geometry">
            <mxPoint x="390" y="800" as="sourcePoint" />
            <mxPoint x="321" y="806" as="targetPoint" />
          </mxGeometry>
        </mxCell>
        <mxCell id="xIgMKLJPhGoxKJrtwZhn-35" style="edgeStyle=orthogonalEdgeStyle;rounded=0;orthogonalLoop=1;jettySize=auto;html=1;exitX=0.5;exitY=1;exitDx=0;exitDy=0;" edge="1" parent="WIyWlLk6GJQsqaUBKTNV-1" source="xIgMKLJPhGoxKJrtwZhn-33">
          <mxGeometry relative="1" as="geometry">
            <mxPoint x="400" y="810" as="sourcePoint" />
            <mxPoint x="390" y="940" as="targetPoint" />
          </mxGeometry>
        </mxCell>
        <mxCell id="xIgMKLJPhGoxKJrtwZhn-36" value="" style="ellipse;html=1;shape=endState;fillColor=strokeColor;" vertex="1" parent="WIyWlLk6GJQsqaUBKTNV-1">
          <mxGeometry x="375.4" y="940" width="30" height="30" as="geometry" />
        </mxCell>
      </root>
    </mxGraphModel>
  </diagram>
</mxfile>
